<?xml version="1.0" encoding="utf-8"?>
<!-- Designed by Vexels.com - 2016 All Rights Reserved - https://vexels.com/terms-and-conditions/  -->

<svg version="1.1" id="Layer_1" xmlns="http://www.w3.org/2000/svg" xmlns:xlink="http://www.w3.org/1999/xlink" x="0px" y="0px"
	 width="1200px" height="1200px" viewBox="0 0 1200 1200" enable-background="new 0 0 1200 1200" xml:space="preserve">
<g>
	<path fill="#949397" d="M1149.694,678.091c-0.047-0.597-0.078-1-0.078-1l-0.093-0.086
		C1149.554,677.386,1149.694,677.734,1149.694,678.091"/>
	<path fill="#949397" d="M1149.709,678.331c-0.062,4.851-3.27,9.67-9.638,13.35l-347.509,200.64
		c-12.799,7.399-33.704,7.438-46.427,0.07L63.33,498.192c-7.113-4.107-11.576-8.786-12.847-12.986
		c-2.045,14.675,2.944,43.297,12.847,49.015l682.805,394.215c12.722,7.353,33.627,7.315,46.427-0.086l347.509-200.625
		C1151.63,721.063,1150.112,685.266,1149.709,678.331"/>
	<path fill="#E5E4E7" d="M1140.07,691.681L792.562,892.314c-12.799,7.391-33.704,7.445-46.427,0.093L63.33,498.177
		c-12.738-7.338-17.403-16.682-9.329-21.339l338.024-195.162c31.753-18.333,52.657-18.372,65.38-11.018l682.804,394.214
		C1152.947,672.21,1152.886,684.289,1140.07,691.681"/>
	<path fill="#4C435A" d="M682.104,836.379L98.678,499.54c-3.983-2.301-4.432-5.819-0.977-7.81l348.499-201.214
		c3.471-2.014,9.561-1.743,13.56,0.558l583.411,336.839c4.013,2.302,4.447,5.835,0.992,7.826l-348.5,201.213
		C692.207,838.936,686.102,838.696,682.104,836.379"/>
	<path fill="#C44519" d="M264.086,507.521l-39.454,22.772c-7.578,4.355-20.89,3.82-29.614-1.216l-34.789-20.099
		c-8.709-5.037-9.67-12.722-2.139-17.085l39.485-22.788c7.547-4.346,20.843-3.804,29.568,1.232l34.805,20.091
		C270.673,495.465,271.633,503.143,264.086,507.521"/>
	<path fill="#58A6DC" d="M344.111,461.295l-39.47,22.788c-7.546,4.37-20.873,3.804-29.598-1.216l-34.774-20.099
		c-8.724-5.021-9.685-12.722-2.123-17.07l39.453-22.803c7.563-4.362,20.874-3.789,29.598,1.232l34.79,20.091
		C350.712,449.247,351.673,456.933,344.111,461.295"/>
	<path fill="#C85D9F" d="M424.149,415.101l-39.454,22.772c-7.562,4.362-20.889,3.82-29.598-1.216l-34.805-20.099
		c-8.709-5.037-9.654-12.723-2.123-17.085l39.469-22.787c7.563-4.347,20.858-3.804,29.583,1.231l34.806,20.092
		C430.751,403.044,431.696,410.723,424.149,415.101"/>
	<path fill="#4063AC" d="M504.173,368.891l-39.454,22.772c-7.546,4.369-20.873,3.82-29.598-1.217l-34.79-20.083
		c-8.724-5.037-9.67-12.722-2.123-17.085l39.469-22.803c7.547-4.347,20.858-3.789,29.583,1.247l34.806,20.076
		C510.79,356.834,511.735,364.513,504.173,368.891"/>
	<path fill="#CE9C45" d="M351.75,558.133l-39.454,22.772c-7.562,4.37-20.889,3.82-29.614-1.224l-34.774-20.091
		c-8.725-5.021-9.685-12.722-2.139-17.07l39.469-22.787c7.563-4.362,20.874-3.804,29.583,1.216l34.806,20.091
		C358.336,546.077,359.312,553.771,351.75,558.133"/>
	<path fill="#65B76B" d="M431.789,511.923l-39.454,22.788c-7.562,4.354-20.889,3.804-29.598-1.224l-34.79-20.092
		c-8.74-5.036-9.685-12.73-2.138-17.085l39.469-22.803c7.531-4.347,20.858-3.789,29.583,1.247l34.806,20.092
		C438.391,499.882,439.336,507.544,431.789,511.923"/>
	<path fill="#D27227" d="M511.828,465.712l-39.469,22.772c-7.547,4.37-20.873,3.82-29.598-1.224l-34.774-20.076
		c-8.724-5.036-9.685-12.73-2.153-17.085l39.469-22.788c7.577-4.362,20.889-3.804,29.598,1.232l34.805,20.076
		C518.414,453.655,519.375,461.35,511.828,465.712"/>
	<path fill="#E8E798" d="M591.852,419.509l-39.454,22.78c-7.562,4.355-20.889,3.812-29.598-1.224l-34.789-20.091
		c-8.724-5.037-9.685-12.73-2.139-17.085l39.485-22.788c7.547-4.346,20.858-3.804,29.583,1.232l34.79,20.091
		C598.454,407.461,599.414,415.14,591.852,419.509"/>
	<path fill="#C85D9F" d="M439.429,608.736l-39.469,22.788c-7.547,4.378-20.873,3.804-29.598-1.216l-34.774-20.091
		c-8.724-5.021-9.685-12.73-2.138-17.078l39.469-22.795c7.547-4.362,20.874-3.797,29.598,1.231l34.789,20.092
		C446.031,596.688,446.992,604.382,439.429,608.736"/>
	<path fill="#4063AC" d="M519.468,562.542l-39.469,22.772c-7.562,4.378-20.874,3.82-29.598-1.216l-34.789-20.092
		c-8.709-5.036-9.67-12.73-2.139-17.077l39.485-22.788c7.562-4.354,20.858-3.812,29.583,1.224l34.805,20.092
		C526.054,550.493,527.015,558.172,519.468,562.542"/>
	<path fill="#65B76B" d="M599.492,516.332l-39.454,22.787c-7.547,4.362-20.874,3.804-29.614-1.231l-34.774-20.076
		c-8.724-5.037-9.685-12.73-2.123-17.093l39.469-22.796c7.547-4.346,20.858-3.797,29.583,1.248l34.79,20.091
		C606.093,504.283,607.054,511.961,599.492,516.332"/>
	<path fill="#CE9C45" d="M679.531,470.12l-39.454,22.773c-7.562,4.377-20.874,3.82-29.598-1.217l-34.805-20.091
		c-8.709-5.021-9.654-12.73-2.123-17.077l39.47-22.788c7.547-4.354,20.874-3.804,29.582,1.224l34.821,20.091
		C686.133,458.072,687.078,465.766,679.531,470.12"/>
	<path fill="#E8E798" d="M527.093,659.363l-39.454,22.788c-7.547,4.362-20.874,3.804-29.598-1.216l-34.789-20.092
		c-8.724-5.036-9.67-12.73-2.123-17.093l39.469-22.795c7.531-4.347,20.858-3.797,29.583,1.239l34.79,20.099
		C533.694,647.33,534.655,654.993,527.093,659.363"/>
	<path fill="#C44519" d="M607.131,613.153l-39.454,22.788c-7.562,4.377-20.874,3.804-29.598-1.232l-34.789-20.076
		c-8.725-5.037-9.67-12.73-2.139-17.077l39.47-22.804c7.563-4.354,20.874-3.789,29.582,1.232l34.821,20.099
		C613.733,601.104,614.694,608.791,607.131,613.153"/>
	<path fill="#C85D9F" d="M687.17,566.958l-39.454,22.772c-7.562,4.362-20.889,3.82-29.598-1.216l-34.79-20.091
		c-8.724-5.037-9.685-12.73-2.138-17.093l39.469-22.788c7.547-4.339,20.858-3.804,29.598,1.232l34.79,20.099
		C693.772,554.91,694.733,562.581,687.17,566.958"/>
	<path fill="#BC93C3" d="M767.21,520.732L727.74,543.52c-7.547,4.378-20.873,3.804-29.599-1.216l-34.774-20.091
		c-8.724-5.029-9.685-12.73-2.138-17.078l39.469-22.803c7.562-4.354,20.874-3.789,29.583,1.232l34.805,20.099
		C773.812,508.699,774.773,516.37,767.21,520.732"/>
	<path fill="#65B76B" d="M614.787,709.991l-39.469,22.772c-7.562,4.37-20.874,3.82-29.598-1.216l-34.79-20.092
		c-8.709-5.044-9.669-12.73-2.138-17.077l39.469-22.788c7.562-4.362,20.874-3.804,29.598,1.216l34.805,20.099
		C621.373,697.942,622.334,705.613,614.787,709.991"/>
	<path fill="#4063AC" d="M694.81,663.78l-39.469,22.788c-7.547,4.354-20.873,3.804-29.599-1.224l-34.774-20.091
		c-8.724-5.037-9.685-12.722-2.138-17.085l39.485-22.804c7.546-4.346,20.858-3.789,29.583,1.248l34.789,20.091
		C701.412,651.732,702.373,659.402,694.81,663.78"/>
	<path fill="#B3B2B6" d="M919.788,792.036c-11.111,0-21.602-2.518-29.552-7.09c-8.678-5.036-13.467-11.971-13.467-19.525
		c0-7.64,4.85-14.621,13.637-19.689c16.039-9.258,43.451-9.344,59.413-0.108c8.678,5.013,13.466,11.94,13.466,19.51
		c0,7.624-4.85,14.636-13.652,19.704C941.591,789.495,930.977,792.036,919.788,792.036 M920.268,747.035
		c-9.731,0-18.797,2.138-25.6,6.067c-6.043,3.486-9.36,7.864-9.36,12.319c0,4.401,3.254,8.716,9.204,12.134
		c13.421,7.741,37.362,7.686,50.876-0.086c6.059-3.494,9.391-7.879,9.391-12.334c0-4.401-3.286-8.701-9.221-12.142
		C938.879,749.142,929.907,747.035,920.268,747.035"/>
	<path fill="#686474" d="M285.131,371.052l-57.228,33.054c-3.409,1.976-9.453,1.728-13.405-0.573
		c-3.936-2.271-4.37-5.742-0.945-7.726l57.213-33.038c3.425-1.968,9.453-1.72,13.405,0.55
		C288.121,365.613,288.555,369.091,285.131,371.052"/>
	<g opacity="0.35">
		<g>
			<defs>
				<rect id="SVGID_1_" x="94.788" y="289.657" width="949.731" height="340.419"/>
			</defs>
			<clipPath id="SVGID_2_">
				<use xlink:href="#SVGID_1_"  overflow="visible"/>
			</clipPath>
			<path clip-path="url(#SVGID_2_)" fill="#FFFFFF" d="M458.459,291.222c-3.658-2.092-9.841-2.092-13.529,0.031L97.423,491.893
				c-2.123,1.216-2.882,2.898-2.557,4.525c182.145-65.774,739.149,23.601,949.654,133.672c-0.418-0.511-0.883-1.015-1.596-1.418
				L458.459,291.222z"/>
		</g>
	</g>
</g>
</svg>
